<svg width="20" height="20" viewBox="0 0 20 20" fill="none" xmlns="http://www.w3.org/2000/svg">
<path d="M7.46 2.332C8.74 0.913 10.746 0 13 0C16.866 0 20 2.686 20 6C20 7.989 18.87 9.752 17.132 10.844C17.0887 10.8705 17.0447 10.8959 17 10.92V14.97C17 15.1691 16.9405 15.3637 16.8293 15.5288C16.718 15.6939 16.56 15.822 16.3755 15.8968C16.1909 15.9715 15.9883 15.9895 15.7935 15.9484C15.5987 15.9073 15.4206 15.809 15.282 15.666L14.142 14.492C15.211 13.228 15.84 11.676 15.84 9.999C15.84 5.932 12.142 2.604 7.46 2.332Z" fill="#CCCCCC"/>
<path d="M8.385 15.886L4.718 19.666C4.57942 19.809 4.40132 19.9073 4.20651 19.9484C4.0117 19.9895 3.80905 19.9715 3.62452 19.8968C3.43999 19.822 3.28197 19.6939 3.17071 19.5288C3.05945 19.3637 3.00001 19.1691 3 18.97V14.92C2.95533 14.8959 2.91131 14.8705 2.868 14.844C1.129 13.752 0 11.989 0 10C0 6.686 3.134 4 7 4C10.866 4 14 6.686 14 10C14 12.726 11.879 15.028 8.974 15.758C8.77931 15.8079 8.58284 15.8506 8.385 15.886Z" fill="#CCCCCC"/>
</svg>
